<svg width="131" height="49" viewBox="0 0 131 49" fill="none" xmlns="http://www.w3.org/2000/svg">
<path d="M50.4229 36.2594C48.845 36.2594 47.44 35.9892 46.2079 35.4488C44.9758 34.9084 44.0031 34.1735 43.2898 33.244C42.5765 32.2929 42.1766 31.2338 42.0902 30.0665H47.5697C47.6345 30.6934 47.9263 31.2014 48.4451 31.5904C48.9639 31.9795 49.6015 32.1741 50.3581 32.1741C51.0498 32.1741 51.5794 32.0444 51.9468 31.785C52.3359 31.504 52.5304 31.1473 52.5304 30.715C52.5304 30.1962 52.2603 29.818 51.7199 29.5802C51.1795 29.3208 50.3041 29.0398 49.0936 28.7372C47.7967 28.4346 46.7159 28.1211 45.8513 27.7969C44.9866 27.4511 44.2409 26.9215 43.6141 26.2082C42.9872 25.4732 42.6738 24.4897 42.6738 23.2577C42.6738 22.2201 42.9548 21.2798 43.5168 20.4368C44.1004 19.5722 44.9434 18.8913 46.0458 18.3942C47.1698 17.897 48.4992 17.6484 50.0339 17.6484C52.3035 17.6484 54.0868 18.2104 55.3837 19.3344C56.7022 20.4584 57.4588 21.9499 57.6533 23.8089H52.5304C52.444 23.182 52.163 22.6848 51.6874 22.3174C51.2335 21.9499 50.6283 21.7662 49.8717 21.7662C49.2233 21.7662 48.7261 21.8959 48.3803 22.1553C48.0344 22.393 47.8615 22.7281 47.8615 23.1604C47.8615 23.6792 48.1317 24.0682 48.6721 24.3276C49.2341 24.587 50.0987 24.8464 51.2659 25.1058C52.6061 25.4516 53.6977 25.7975 54.5407 26.1433C55.3837 26.4676 56.1186 27.0079 56.7455 27.7645C57.3939 28.4994 57.729 29.4937 57.7506 30.7474C57.7506 31.8066 57.448 32.7577 56.8427 33.6007C56.2591 34.4221 55.4053 35.0705 54.2813 35.5461C53.1789 36.0216 51.8928 36.2594 50.4229 36.2594ZM87.1137 17.9078L82.2177 36H76.0897L73.2365 24.2628L70.286 36H64.1904L59.2621 17.9078H64.8065L67.3679 30.8447L70.4157 17.9078H76.2843L79.3645 30.7799L81.8935 17.9078H87.1137ZM97.4635 36.2594C95.691 36.2594 94.0915 35.8811 92.6649 35.1246C91.2599 34.368 90.1467 33.2873 89.3253 31.8822C88.5255 30.4772 88.1256 28.8345 88.1256 26.9539C88.1256 25.095 88.5363 23.463 89.3577 22.058C90.1791 20.6314 91.3031 19.5398 92.7297 18.7832C94.1563 18.0267 95.7559 17.6484 97.5284 17.6484C99.3008 17.6484 100.9 18.0267 102.327 18.7832C103.754 19.5398 104.878 20.6314 105.699 22.058C106.52 23.463 106.931 25.095 106.931 26.9539C106.931 28.8128 106.51 30.4556 105.667 31.8822C104.845 33.2873 103.71 34.368 102.262 35.1246C100.836 35.8811 99.236 36.2594 97.4635 36.2594ZM97.4635 31.4607C98.5227 31.4607 99.4197 31.0717 100.155 30.2935C100.911 29.5153 101.289 28.4021 101.289 26.9539C101.289 25.5057 100.922 24.3925 100.187 23.6143C99.4738 22.8362 98.5875 22.4471 97.5284 22.4471C96.4476 22.4471 95.5505 22.8362 94.8372 23.6143C94.1239 24.3709 93.7673 25.4841 93.7673 26.9539C93.7673 28.4021 94.1131 29.5153 94.8048 30.2935C95.5181 31.0717 96.4044 31.4607 97.4635 31.4607ZM115.417 20.4693C115.957 19.6263 116.703 18.9454 117.654 18.4266C118.605 17.9078 119.718 17.6484 120.994 17.6484C122.485 17.6484 123.836 18.0267 125.047 18.7832C126.257 19.5398 127.208 20.6206 127.9 22.0256C128.613 23.4306 128.97 25.0626 128.97 26.9215C128.97 28.7804 128.613 30.4232 127.9 31.8498C127.208 33.2548 126.257 34.3464 125.047 35.1246C123.836 35.8811 122.485 36.2594 120.994 36.2594C119.74 36.2594 118.627 36 117.654 35.4812C116.703 34.9625 115.957 34.2924 115.417 33.471V44.6246H109.873V17.9078H115.417V20.4693ZM123.328 26.9215C123.328 25.5381 122.939 24.4573 122.161 23.6792C121.404 22.8794 120.464 22.4795 119.34 22.4795C118.238 22.4795 117.297 22.8794 116.519 23.6792C115.763 24.4789 115.384 25.5705 115.384 26.9539C115.384 28.3373 115.763 29.4289 116.519 30.2287C117.297 31.0284 118.238 31.4283 119.34 31.4283C120.442 31.4283 121.383 31.0284 122.161 30.2287C122.939 29.4073 123.328 28.3049 123.328 26.9215Z" fill="#141414"/>
<g clip-path="url(#clip0_32_6)">
<path d="M7.43758 10.5428C3.32993 10.5428 0 13.8407 0 17.9089C0 21.977 3.32996 25.275 7.43761 25.275C11.5453 25.275 14.8752 21.977 14.8752 17.9089C14.8752 13.8407 11.5452 10.5428 7.43758 10.5428Z" fill="#DF3F40"/>
<path fill-rule="evenodd" clip-rule="evenodd" d="M17.3544 17.9089C17.3544 13.8407 20.6843 10.5428 24.7919 10.5428C28.8996 10.5428 32.2296 13.8407 32.2296 17.9088V25.2016C32.2296 25.2421 32.1965 25.2749 32.1554 25.2749H24.7919C20.6843 25.2749 17.3544 21.977 17.3544 17.9089Z" fill="#00BCA6"/>
<path d="M0 35.0964C0 31.0282 3.32993 27.7303 7.43758 27.7303C11.5453 27.7303 14.8752 31.0282 14.8752 35.0964V42.3891C14.8752 42.4297 14.842 42.4625 14.8012 42.4625H7.43758C3.32993 42.4625 0 39.1646 0 35.0964Z" fill="#967DB8"/>
<path d="M17.3544 35.0964C17.3544 31.0282 20.6843 27.7303 24.7919 27.7303C28.8996 27.7303 32.2296 31.0282 32.2296 35.0964V42.3891C32.2296 42.4297 32.1965 42.4625 32.1554 42.4625H17.4284C17.3875 42.4625 17.3544 42.4297 17.3544 42.3891V35.0964Z" fill="#EDC500"/>
</g>
<defs>
<clipPath id="clip0_32_6">
<rect width="32.5" height="32.5" fill="white" transform="translate(0 10.2428)"/>
</clipPath>
</defs>
</svg>
